Coordinates
version=1
nRows=18
nColumns=33
inDegrees=yes

Units are S.I. units (second, meters, Newtons, ...)
Angles are in degrees.

endheader
time	ground_thorax_rot_x	ground_thorax_rot_y	ground_thorax_rot_z	ground_thorax_tx	ground_thorax_ty	ground_thorax_tz	clav_prot_r	clav_elev_r	scapula_abduction_r	scapula_elevation_r	scapula_upward_rot_r	scapula_winging_r	shoulder_elv_r	plane_of_elev_r	axial_rot_r	elbow_flexion_r	pro_sup_r	wrist_flex_r	wrist_dev_r	clav_prot_l	clav_elev_l	scapula_abduction_l	scapula_elevation_l	scapula_upward_rot_l	scapula_winging_l	shoulder_elv_l	plane_of_elev_l	axial_rot_l	elbow_flexion_l	pro_sup_l	wrist_flex_l	wrist_dev_l	
6.5800	-3.457431	3.526729	13.938839	-0.117731	1.027938	0.008658	10.230778	-16.583951	17.875550	-8.944204	0.050607	-0.765168	-20.348880	-69.388691	110.894714	-67.012280	-185.357079	23.207219	-3.088675	15.938364	-6.186782	-22.901671	-15.069012	-34.078595	3.979433	61.449320	-17.646855	10.801120	58.053731	4.978289	15.021331	-13.492559	
6.5900	-3.331344	3.439570	13.924057	-0.117670	1.028206	0.008794	9.914612	-16.510680	17.078469	-8.650366	-0.534958	-0.491881	-21.331606	-70.056287	110.352830	-67.621827	-185.481265	23.806933	-3.282094	15.569466	-5.930603	-22.298912	-15.441441	-34.321214	3.645869	61.382306	-18.621752	10.495084	59.521745	5.134233	14.513540	-13.975763	
6.6000	-3.194333	3.340194	13.905533	-0.117588	1.028463	0.008926	9.608221	-16.393867	16.326482	-8.334838	-1.067849	-0.260468	-22.338111	-70.692119	109.804649	-68.140914	-185.540277	24.423918	-3.511782	15.205837	-5.666055	-21.701940	-15.816457	-34.552020	3.317401	61.276267	-19.589286	10.205688	60.896174	5.355630	13.961981	-14.551982	
6.6100	-3.047283	3.225907	13.891248	-0.117496	1.028701	0.009052	9.318299	-16.231327	15.629332	-7.995377	-1.548655	-0.075651	-23.355333	-71.292211	109.262596	-68.561024	-185.524347	25.046960	-3.771585	14.852034	-5.391954	-21.119578	-16.199226	-34.779983	2.997029	61.127925	-20.546190	9.934844	62.171772	5.624475	13.385926	-15.207754	
6.6200	-2.899610	3.102072	13.862514	-0.117366	1.028962	0.009169	9.036636	-16.067311	14.969240	-7.672980	-1.980440	0.095088	-24.435363	-71.870208	108.648971	-68.888519	-185.436016	25.722595	-4.086666	14.491095	-5.115776	-20.515856	-16.565355	-34.965506	2.672074	60.960219	-21.521337	9.633120	63.344966	5.956060	12.736641	-15.961960	
6.6300	-2.750974	2.968426	13.826803	-0.117204	1.029240	0.009279	8.766591	-15.895322	14.351467	-7.361347	-2.363813	0.246075	-25.572863	-72.418929	107.968193	-69.121818	-185.266700	26.440684	-4.450270	14.125950	-4.835628	-19.896569	-16.918853	-35.113866	2.344893	60.768561	-22.507814	9.305724	64.407405	6.340921	12.026057	-16.801304	
6.6400	-2.604233	2.828425	13.784852	-0.117021	1.029515	0.009383	8.514220	-15.711170	13.783176	-7.054584	-2.703776	0.372852	-26.749030	-72.928290	107.235563	-69.268497	-185.014198	27.180109	-4.845590	13.763615	-4.547396	-19.275134	-17.267109	-35.233367	2.020623	60.553716	-23.492431	8.958958	65.364164	6.756733	11.279672	-17.693064	
6.6500	-2.453423	2.682314	13.752112	-0.116836	1.029774	0.009488	8.288591	-15.500949	13.276325	-6.736422	-3.007730	0.463286	-27.955917	-73.388633	106.453275	-69.330425	-184.641387	27.943550	-5.275954	13.410450	-4.254100	-18.664726	-17.613737	-35.338576	1.704067	60.311665	-24.468207	8.593622	66.205692	7.198728	10.509220	-18.630248	
6.6600	-2.303558	2.529993	13.719116	-0.116651	1.030013	0.009591	8.091723	-15.272383	12.835630	-6.416443	-3.270930	0.519730	-29.196449	-73.798082	105.619615	-69.314718	-184.133151	28.738059	-5.745055	13.068385	-3.957543	-18.068728	-17.957516	-35.430558	1.396669	60.052580	-25.434457	8.210207	66.944027	7.668303	9.709903	-19.606661	
6.6700	-2.153304	2.371051	13.697866	-0.116476	1.030235	0.009695	7.922846	-15.028394	12.453834	-6.092282	-3.506110	0.547245	-30.449506	-74.159629	104.748868	-69.230323	-183.493013	29.552166	-6.244487	12.742143	-3.666772	-17.499401	-18.300134	-35.531139	1.100152	59.785214	-26.393184	7.807391	67.585762	8.156094	8.899384	-20.581021	
6.6800	-2.006194	2.208694	13.668944	-0.116306	1.030439	0.009799	7.785180	-14.773483	12.144897	-5.777183	-3.692524	0.542582	-31.744964	-74.461059	103.808114	-69.071229	-182.647872	30.423516	-6.798137	12.429847	-3.379386	-16.951150	-18.638081	-35.628184	0.814646	59.519215	-27.334421	7.379470	68.133746	8.680168	8.044308	-21.559303	
6.6900	-1.862956	2.040380	13.639059	-0.116147	1.030625	0.009901	7.678223	-14.509766	11.908472	-5.473933	-3.828874	0.506750	-33.090903	-74.708875	102.798171	-68.842580	-181.605780	31.341792	-7.401218	12.132294	-3.096198	-16.427112	-18.973868	-35.728890	0.540092	59.255605	-28.260461	6.923010	68.593853	9.234756	7.147383	-22.508390	
6.7000	-1.728690	1.868014	13.590269	-0.115987	1.030823	0.009999	7.605911	-14.254797	11.766283	-5.215016	-3.878400	0.440022	-34.604805	-74.896444	101.601434	-68.524319	-180.269448	32.366654	-8.103868	11.835058	-2.821672	-15.897053	-19.290058	-35.803749	0.267225	59.012113	-29.185475	6.403077	68.975395	9.859573	6.120795	-23.384116	
6.7100	-1.600851	1.692656	13.539933	-0.115846	1.030997	0.010092	7.564797	-13.993815	11.699959	-4.973878	-3.871199	0.342410	-36.184519	-75.030355	100.330114	-68.151280	-178.780337	33.383860	-8.829689	11.556352	-2.556927	-15.402527	-19.607419	-35.901219	0.006538	58.782206	-30.083768	5.863964	69.297887	10.482397	5.070906	-24.071924	
6.7200	-1.473695	1.525054	13.482657	-0.115730	1.031161	0.010191	7.562011	-13.727155	11.726150	-4.755582	-3.796288	0.207195	-37.887271	-75.093827	98.906794	-67.710740	-177.068434	34.443434	-9.618579	11.292873	-2.309867	-14.937685	-19.916151	-36.016630	-0.242942	58.580526	-30.940220	5.280570	69.543662	11.125425	3.947760	-24.565216	
6.7300	-1.349230	1.366792	13.430917	-0.115640	1.031294	0.010289	7.578161	-13.458809	11.789329	-4.541359	-3.707663	0.058560	-39.543189	-75.116450	97.507471	-67.247068	-175.364970	35.433498	-10.383808	11.060323	-2.079933	-14.537073	-20.230711	-36.181226	-0.471845	58.392859	-31.736680	4.704252	69.719689	11.729437	2.877704	-24.860175	
6.7400	-1.230095	1.220135	13.368818	-0.115574	1.031418	0.010386	7.608564	-13.201167	11.882198	-4.343413	-3.604298	-0.095418	-41.125228	-75.095923	96.145560	-66.759536	-173.672504	36.370102	-11.131526	10.858283	-1.868592	-14.197336	-20.540927	-36.376984	-0.678134	58.217493	-32.462169	4.139397	69.808885	12.311988	1.859020	-24.991095	
6.7500	-1.122869	1.090266	13.318400	-0.115518	1.031500	0.010478	7.630804	-12.950621	11.948300	-4.139977	-3.530419	-0.234183	-42.502901	-75.059016	94.963791	-66.267108	-172.076912	37.233892	-11.830521	10.696412	-1.655839	-13.933466	-20.864500	-36.601237	-0.856653	58.029910	-33.108667	3.613864	69.808857	12.886720	0.959882	-25.000000	
